<svg width="60" height="61" viewBox="0 0 60 61" fill="none" xmlns="http://www.w3.org/2000/svg">
<rect width="60" height="60" rx="13" fill="#B1DEBD"/>
<path d="M41.0559 30.1417L35.3259 19.0668C33.9396 16.3874 34.4397 13.1196 36.564 10.9775C39.2834 8.23526 43.7166 8.23527 46.436 10.9775C48.5603 13.1196 49.0604 16.3874 47.6741 19.0668L41.9441 30.1417C41.7577 30.502 41.2423 30.502 41.0559 30.1417Z" fill="#D11D1E" stroke="#D11D1E" stroke-width="2"/>
<circle cx="41.5" cy="15.5" r="4.5" fill="#B1DEBD"/>
<mask id="path-4-outside-1_251_2" maskUnits="userSpaceOnUse" x="9" y="7" width="16" height="27" fill="black">
<rect fill="white" x="9" y="7" width="16" height="27"/>
<path d="M20.5398 8.72727H23.358V25.3636C23.358 26.8485 23.0852 28.1098 22.5398 29.1477C21.9943 30.1856 21.2254 30.9735 20.233 31.5114C19.2405 32.0492 18.0701 32.3182 16.7216 32.3182C15.4489 32.3182 14.3163 32.0871 13.3239 31.625C12.3314 31.1553 11.5511 30.4886 10.983 29.625C10.4148 28.7614 10.1307 27.7348 10.1307 26.5455H12.9034C12.9034 27.2045 13.0663 27.7803 13.392 28.2727C13.7254 28.7576 14.1799 29.1364 14.7557 29.4091C15.3314 29.6818 15.9867 29.8182 16.7216 29.8182C17.5322 29.8182 18.2216 29.6477 18.7898 29.3068C19.358 28.9659 19.7898 28.4659 20.0852 27.8068C20.3883 27.1402 20.5398 26.3258 20.5398 25.3636V8.72727Z"/>
</mask>
<path d="M20.5398 8.72727H23.358V25.3636C23.358 26.8485 23.0852 28.1098 22.5398 29.1477C21.9943 30.1856 21.2254 30.9735 20.233 31.5114C19.2405 32.0492 18.0701 32.3182 16.7216 32.3182C15.4489 32.3182 14.3163 32.0871 13.3239 31.625C12.3314 31.1553 11.5511 30.4886 10.983 29.625C10.4148 28.7614 10.1307 27.7348 10.1307 26.5455H12.9034C12.9034 27.2045 13.0663 27.7803 13.392 28.2727C13.7254 28.7576 14.1799 29.1364 14.7557 29.4091C15.3314 29.6818 15.9867 29.8182 16.7216 29.8182C17.5322 29.8182 18.2216 29.6477 18.7898 29.3068C19.358 28.9659 19.7898 28.4659 20.0852 27.8068C20.3883 27.1402 20.5398 26.3258 20.5398 25.3636V8.72727Z" fill="#FCFCFC"/>
<path d="M20.5398 8.72727V7.72727H19.5398V8.72727H20.5398ZM23.358 8.72727H24.358V7.72727H23.358V8.72727ZM22.5398 29.1477L23.425 29.6129L22.5398 29.1477ZM20.233 31.5114L20.7095 32.3905L20.233 31.5114ZM13.3239 31.625L12.8961 32.5289L12.9017 32.5315L13.3239 31.625ZM10.983 29.625L10.1475 30.1746L10.983 29.625ZM10.1307 26.5455V25.5455H9.13068V26.5455H10.1307ZM12.9034 26.5455H13.9034V25.5455H12.9034V26.5455ZM13.392 28.2727L12.558 28.8245L12.5629 28.8319L12.568 28.8393L13.392 28.2727ZM14.7557 29.4091L15.1838 28.5054L14.7557 29.4091ZM18.7898 29.3068L18.2753 28.4493L18.7898 29.3068ZM20.0852 27.8068L19.1748 27.393L19.1727 27.3978L20.0852 27.8068ZM20.5398 9.72727H23.358V7.72727H20.5398V9.72727ZM22.358 8.72727V25.3636H24.358V8.72727H22.358ZM22.358 25.3636C22.358 26.7286 22.1072 27.8213 21.6546 28.6825L23.425 29.6129C24.0633 28.3984 24.358 26.9684 24.358 25.3636H22.358ZM21.6546 28.6825C21.1975 29.5521 20.5676 30.1925 19.7565 30.6322L20.7095 32.3905C21.8831 31.7544 22.7911 30.8191 23.425 29.6129L21.6546 28.6825ZM19.7565 30.6322C18.9363 31.0767 17.936 31.3182 16.7216 31.3182V33.3182C18.2042 33.3182 19.5447 33.0218 20.7095 32.3905L19.7565 30.6322ZM16.7216 31.3182C15.5711 31.3182 14.5864 31.1098 13.746 30.7185L12.9017 32.5315C14.0462 33.0645 15.3266 33.3182 16.7216 33.3182V31.3182ZM13.7517 30.7211C12.9143 30.3248 12.2794 29.7762 11.8184 29.0754L10.1475 30.1746C10.8229 31.2011 11.7486 31.9858 12.8961 32.5289L13.7517 30.7211ZM11.8184 29.0754C11.373 28.3985 11.1307 27.5697 11.1307 26.5455H9.13068C9.13068 27.9 9.45652 29.1243 10.1475 30.1746L11.8184 29.0754ZM10.1307 27.5455H12.9034V25.5455H10.1307V27.5455ZM11.9034 26.5455C11.9034 27.3771 12.1117 28.1497 12.558 28.8245L14.2261 27.721C14.0209 27.4109 13.9034 27.032 13.9034 26.5455H11.9034ZM12.568 28.8393C13.0095 29.4814 13.606 29.971 14.3276 30.3128L15.1838 28.5054C14.7538 28.3017 14.4413 28.0338 14.2161 27.7062L12.568 28.8393ZM14.3276 30.3128C15.0562 30.658 15.8614 30.8182 16.7216 30.8182V28.8182C16.1121 28.8182 15.6066 28.7057 15.1838 28.5054L14.3276 30.3128ZM16.7216 30.8182C17.673 30.8182 18.5493 30.6173 19.3043 30.1643L18.2753 28.4493C17.8939 28.6782 17.3914 28.8182 16.7216 28.8182V30.8182ZM19.3043 30.1643C20.0637 29.7086 20.6265 29.044 20.9977 28.2159L19.1727 27.3978C18.953 27.8878 18.6522 28.2232 18.2753 28.4493L19.3043 30.1643ZM20.9956 28.2206C21.3731 27.39 21.5398 26.4257 21.5398 25.3636H19.5398C19.5398 26.2258 19.4034 26.8903 19.1749 27.393L20.9956 28.2206ZM21.5398 25.3636V8.72727H19.5398V25.3636H21.5398Z" fill="#8C8C8C" mask="url(#path-4-outside-1_251_2)"/>
<path d="M47 60.5L13 60.5C5.8203 60.5 0 54.6797 0 47.5L0 42C0 39.2386 2.23858 37 5 37L55 37C57.7614 37 60 39.2386 60 42V47.5C60 54.6797 54.1797 60.5 47 60.5Z" fill="white"/>
<mask id="path-7-outside-2_251_2" maskUnits="userSpaceOnUse" x="7" y="45" width="45" height="16" fill="black">
<rect fill="white" x="7" y="45" width="45" height="16"/>
<path fill-rule="evenodd" clip-rule="evenodd" d="M46.8475 59.6772C47.142 59.2671 47.3842 58.8065 47.5739 58.2955C47.9451 57.2955 48.1307 56.2121 48.1307 55.0455C48.1307 53.8788 47.9451 52.7917 47.5739 51.7841C47.2027 50.7765 46.6307 49.9621 45.858 49.3409C45.0852 48.7197 44.1004 48.4091 42.9034 48.4091C41.7064 48.4091 40.7216 48.7197 39.9489 49.3409C39.1761 49.9621 38.6042 50.7765 38.233 51.7841C37.8617 52.7917 37.6761 53.8788 37.6761 55.0455C37.6761 56.2121 37.8617 57.2955 38.233 58.2955C38.4234 58.8084 38.6666 59.2705 38.9627 59.6818H35.9392C35.3093 58.3536 34.9943 56.8081 34.9943 55.0455C34.9943 53.2273 35.3239 51.6402 35.983 50.2841C36.6496 48.928 37.5739 47.875 38.7557 47.125C39.9451 46.375 41.3277 46 42.9034 46C44.4792 46 45.858 46.375 47.0398 47.125C48.2292 47.875 49.1534 48.928 49.8125 50.2841C50.4792 51.6402 50.8125 53.2273 50.8125 55.0455C50.8125 56.5919 50.5673 57.9711 50.0769 59.1831C49.047 59.4774 47.9648 59.6478 46.8475 59.6772ZM30.9091 59.6818V52C30.9091 49.947 30.4129 48.4356 29.4205 47.4659C28.428 46.4886 27.1515 46 25.5909 46C24.3409 46 23.2689 46.2689 22.375 46.8068C21.4811 47.3371 20.8106 48.053 20.3636 48.9545H20.1818C19.75 48.0227 19.1477 47.2992 18.375 46.7841C17.6098 46.2614 16.6515 46 15.5 46C14.3636 46 13.3902 46.2614 12.5795 46.7841C11.7689 47.2992 11.1818 48.0227 10.8182 48.9545H10.5909V46.2273H8V58.8824C8.85526 59.1979 9.7528 59.426 10.6818 59.5559V52.7727C10.6818 51.9167 10.8636 51.1629 11.2273 50.5114C11.5985 49.8523 12.0833 49.3371 12.6818 48.9659C13.2879 48.5947 13.9394 48.4091 14.6364 48.4091C15.6515 48.4091 16.4811 48.7159 17.125 49.3295C17.7689 49.9356 18.0909 50.7348 18.0909 51.7273V59.6818H20.8182V52.3182C20.8182 51.1894 21.1553 50.2576 21.8295 49.5227C22.5038 48.7803 23.4545 48.4091 24.6818 48.4091C25.6364 48.4091 26.4659 48.6856 27.1705 49.2386C27.875 49.7917 28.2273 50.7121 28.2273 52V59.6818H30.9091Z"/>
</mask>
<path fill-rule="evenodd" clip-rule="evenodd" d="M46.8475 59.6772C47.142 59.2671 47.3842 58.8065 47.5739 58.2955C47.9451 57.2955 48.1307 56.2121 48.1307 55.0455C48.1307 53.8788 47.9451 52.7917 47.5739 51.7841C47.2027 50.7765 46.6307 49.9621 45.858 49.3409C45.0852 48.7197 44.1004 48.4091 42.9034 48.4091C41.7064 48.4091 40.7216 48.7197 39.9489 49.3409C39.1761 49.9621 38.6042 50.7765 38.233 51.7841C37.8617 52.7917 37.6761 53.8788 37.6761 55.0455C37.6761 56.2121 37.8617 57.2955 38.233 58.2955C38.4234 58.8084 38.6666 59.2705 38.9627 59.6818H35.9392C35.3093 58.3536 34.9943 56.8081 34.9943 55.0455C34.9943 53.2273 35.3239 51.6402 35.983 50.2841C36.6496 48.928 37.5739 47.875 38.7557 47.125C39.9451 46.375 41.3277 46 42.9034 46C44.4792 46 45.858 46.375 47.0398 47.125C48.2292 47.875 49.1534 48.928 49.8125 50.2841C50.4792 51.6402 50.8125 53.2273 50.8125 55.0455C50.8125 56.5919 50.5673 57.9711 50.0769 59.1831C49.047 59.4774 47.9648 59.6478 46.8475 59.6772ZM30.9091 59.6818V52C30.9091 49.947 30.4129 48.4356 29.4205 47.4659C28.428 46.4886 27.1515 46 25.5909 46C24.3409 46 23.2689 46.2689 22.375 46.8068C21.4811 47.3371 20.8106 48.053 20.3636 48.9545H20.1818C19.75 48.0227 19.1477 47.2992 18.375 46.7841C17.6098 46.2614 16.6515 46 15.5 46C14.3636 46 13.3902 46.2614 12.5795 46.7841C11.7689 47.2992 11.1818 48.0227 10.8182 48.9545H10.5909V46.2273H8V58.8824C8.85526 59.1979 9.7528 59.426 10.6818 59.5559V52.7727C10.6818 51.9167 10.8636 51.1629 11.2273 50.5114C11.5985 49.8523 12.0833 49.3371 12.6818 48.9659C13.2879 48.5947 13.9394 48.4091 14.6364 48.4091C15.6515 48.4091 16.4811 48.7159 17.125 49.3295C17.7689 49.9356 18.0909 50.7348 18.0909 51.7273V59.6818H20.8182V52.3182C20.8182 51.1894 21.1553 50.2576 21.8295 49.5227C22.5038 48.7803 23.4545 48.4091 24.6818 48.4091C25.6364 48.4091 26.4659 48.6856 27.1705 49.2386C27.875 49.7917 28.2273 50.7121 28.2273 52V59.6818H30.9091Z" fill="black"/>
<path d="M46.8475 59.6772L46.0352 59.0939L44.8602 60.7299L46.8738 60.6769L46.8475 59.6772ZM47.5739 58.2955L46.6364 57.9474L46.6364 57.9474L47.5739 58.2955ZM47.5739 51.7841L48.5122 51.4384L48.5122 51.4384L47.5739 51.7841ZM45.858 49.3409L46.4845 48.5615L46.4845 48.5615L45.858 49.3409ZM39.9489 49.3409L39.3223 48.5615L39.3223 48.5615L39.9489 49.3409ZM38.233 51.7841L37.2946 51.4384L37.2946 51.4384L38.233 51.7841ZM38.233 58.2955L37.2955 58.6435L37.2955 58.6435L38.233 58.2955ZM38.9627 59.6818V60.6818H40.9146L39.7743 59.0976L38.9627 59.6818ZM35.9392 59.6818L35.0356 60.1103L35.3067 60.6818H35.9392V59.6818ZM35.983 50.2841L35.0855 49.8429L35.0836 49.847L35.983 50.2841ZM38.7557 47.125L38.2223 46.2791L38.2199 46.2807L38.7557 47.125ZM47.0398 47.125L46.5039 47.9693L46.5064 47.9709L47.0398 47.125ZM49.8125 50.2841L48.9131 50.7212L48.9151 50.7253L49.8125 50.2841ZM50.0769 59.1831L50.3516 60.1447L50.8209 60.0106L51.0039 59.5582L50.0769 59.1831ZM30.9091 59.6818V60.6818H31.9091V59.6818H30.9091ZM29.4205 47.4659L28.7188 48.1784L28.7216 48.1812L29.4205 47.4659ZM22.375 46.8068L22.8852 47.6669L22.8906 47.6637L22.375 46.8068ZM20.3636 48.9545V49.9545H20.984L21.2596 49.3987L20.3636 48.9545ZM20.1818 48.9545L19.2745 49.375L19.5431 49.9545H20.1818V48.9545ZM18.375 46.7841L17.8109 47.6099L17.8203 47.6161L18.375 46.7841ZM12.5795 46.7841L13.1159 47.6281L13.1215 47.6245L12.5795 46.7841ZM10.8182 48.9545V49.9545H11.5014L11.7498 49.3181L10.8182 48.9545ZM10.5909 48.9545H9.59091V49.9545H10.5909V48.9545ZM10.5909 46.2273H11.5909V45.2273H10.5909V46.2273ZM8 46.2273V45.2273H7V46.2273H8ZM8 58.8824H7V59.5794L7.65395 59.8206L8 58.8824ZM10.6818 59.5559L10.5433 60.5462L11.6818 60.7054V59.5559H10.6818ZM11.2273 50.5114L10.356 50.0206L10.3541 50.024L11.2273 50.5114ZM12.6818 48.9659L12.1595 48.1131L12.1547 48.1161L12.6818 48.9659ZM17.125 49.3295L16.4351 50.0535L16.4396 50.0577L17.125 49.3295ZM18.0909 59.6818H17.0909V60.6818H18.0909V59.6818ZM20.8182 59.6818V60.6818H21.8182V59.6818H20.8182ZM21.8295 49.5227L22.5664 50.1988L22.5698 50.195L21.8295 49.5227ZM27.1705 49.2386L26.553 50.0252L26.553 50.0252L27.1705 49.2386ZM28.2273 59.6818H27.2273V60.6818H28.2273V59.6818ZM47.6597 60.2606C48.0103 59.7724 48.293 59.2316 48.5114 58.6435L46.6364 57.9474C46.4753 58.3814 46.2738 58.7618 46.0352 59.0939L47.6597 60.2606ZM48.5114 58.6435C48.9276 57.5221 49.1307 56.3198 49.1307 55.0455H47.1307C47.1307 56.1045 46.9625 57.0688 46.6364 57.9474L48.5114 58.6435ZM49.1307 55.0455C49.1307 53.771 48.9276 52.5659 48.5122 51.4384L46.6355 52.1298C46.9626 53.0175 47.1307 53.9865 47.1307 55.0455H49.1307ZM48.5122 51.4384C48.0837 50.2753 47.4102 49.3057 46.4845 48.5615L45.2314 50.1203C45.8511 50.6185 46.3216 51.2777 46.6355 52.1298L48.5122 51.4384ZM46.4845 48.5615C45.4995 47.7696 44.2794 47.4091 42.9034 47.4091V49.4091C43.9214 49.4091 44.671 49.6698 45.2314 50.1203L46.4845 48.5615ZM42.9034 47.4091C41.5275 47.4091 40.3073 47.7696 39.3223 48.5615L40.5754 50.1203C41.1358 49.6698 41.8854 49.4091 42.9034 49.4091V47.4091ZM39.3223 48.5615C38.3966 49.3057 37.7231 50.2753 37.2946 51.4384L39.1713 52.1298C39.4852 51.2777 39.9557 50.6185 40.5754 50.1203L39.3223 48.5615ZM37.2946 51.4384C36.8792 52.5659 36.6761 53.771 36.6761 55.0455H38.6761C38.6761 53.9865 38.8443 53.0175 39.1713 52.1298L37.2946 51.4384ZM36.6761 55.0455C36.6761 56.3198 36.8792 57.5221 37.2955 58.6435L39.1704 57.9474C38.8443 57.0688 38.6761 56.1045 38.6761 55.0455H36.6761ZM37.2955 58.6435C37.5146 59.2338 37.7987 59.7765 38.1511 60.266L39.7743 59.0976C39.5346 58.7646 39.3321 58.383 39.1704 57.9474L37.2955 58.6435ZM38.9627 58.6818H35.9392V60.6818H38.9627V58.6818ZM36.8427 59.2533C36.2877 58.083 35.9943 56.689 35.9943 55.0455H33.9943C33.9943 56.9272 34.3308 58.6241 35.0356 60.1103L36.8427 59.2533ZM35.9943 55.0455C35.9943 53.348 36.3017 51.9159 36.8823 50.7212L35.0836 49.847C34.346 51.3644 33.9943 53.1066 33.9943 55.0455H35.9943ZM36.8804 50.7253C37.4726 49.5207 38.2773 48.6129 39.2915 47.9693L38.2199 46.2807C36.8704 47.1371 35.8267 48.3354 35.0855 49.8429L36.8804 50.7253ZM39.2891 47.9709C40.3 47.3334 41.493 47 42.9034 47V45C41.1623 45 39.5901 45.4166 38.2223 46.2791L39.2891 47.9709ZM42.9034 47C44.314 47 45.5019 47.3334 46.5039 47.9693L47.5756 46.2807C46.214 45.4166 44.6444 45 42.9034 45V47ZM46.5064 47.9709C47.5266 48.6142 48.3294 49.5202 48.9131 50.7212L50.7119 49.847C49.9774 48.3358 48.9317 47.1358 47.5732 46.2791L46.5064 47.9709ZM48.9151 50.7253C49.5019 51.9189 49.8125 53.3495 49.8125 55.0455H51.8125C51.8125 53.105 51.4564 51.3614 50.7099 49.8429L48.9151 50.7253ZM49.8125 55.0455C49.8125 56.4864 49.5841 57.7348 49.1499 58.8081L51.0039 59.5582C51.5505 58.2073 51.8125 56.6974 51.8125 55.0455H49.8125ZM49.8022 58.2216C48.8523 58.493 47.8536 58.6504 46.8211 58.6776L46.8738 60.6769C48.076 60.6452 49.2416 60.4618 50.3516 60.1447L49.8022 58.2216ZM29.9091 52V59.6818H31.9091V52H29.9091ZM28.7216 48.1812C29.4456 48.8886 29.9091 50.0874 29.9091 52H31.9091C31.9091 49.8065 31.3802 47.9827 30.1193 46.7507L28.7216 48.1812ZM25.5909 47C26.9234 47 27.9367 47.4082 28.7188 48.1784L30.1221 46.7534C28.9194 45.569 27.3796 45 25.5909 45V47ZM22.8906 47.6637C23.6005 47.2365 24.4864 47 25.5909 47V45C24.1954 45 22.9374 45.3014 21.8594 45.95L22.8906 47.6637ZM21.2596 49.3987C21.6179 48.6761 22.1515 48.1021 22.8852 47.6669L21.8648 45.9468C20.8106 46.5721 20.0034 47.43 19.4677 48.5103L21.2596 49.3987ZM20.1818 49.9545H20.3636V47.9545H20.1818V49.9545ZM17.8203 47.6161C18.4239 48.0186 18.9116 48.592 19.2745 49.375L21.0891 48.5341C20.5884 47.4535 19.8715 46.5799 18.9297 45.952L17.8203 47.6161ZM15.5 47C16.4994 47 17.2484 47.2255 17.8109 47.6098L18.9391 45.9584C17.9713 45.2972 16.8037 45 15.5 45V47ZM13.1215 47.6245C13.7436 47.2234 14.521 47 15.5 47V45C14.2062 45 13.0367 45.2994 12.0376 45.9437L13.1215 47.6245ZM11.7498 49.3181C12.0395 48.5756 12.4926 48.0242 13.1159 47.6281L12.0432 45.9401C11.0453 46.5743 10.3241 47.4699 9.8866 48.591L11.7498 49.3181ZM10.5909 49.9545H10.8182V47.9545H10.5909V49.9545ZM9.59091 46.2273V48.9545H11.5909V46.2273H9.59091ZM8 47.2273H10.5909V45.2273H8V47.2273ZM9 58.8824V46.2273H7L7 58.8824H9ZM10.8203 58.5655C9.96294 58.4456 9.13494 58.2352 8.34605 57.9442L7.65395 59.8206C8.57558 60.1606 9.54267 60.4063 10.5433 60.5462L10.8203 58.5655ZM9.68182 52.7727V59.5559H11.6818V52.7727H9.68182ZM10.3541 50.024C9.89571 50.8452 9.68182 51.7715 9.68182 52.7727H11.6818C11.6818 52.0618 11.8316 51.4805 12.1005 50.9987L10.3541 50.024ZM12.1547 48.1161C11.4026 48.5826 10.8035 49.226 10.356 50.0206L12.0986 51.0021C12.3934 50.4786 12.7641 50.0916 13.2089 49.8157L12.1547 48.1161ZM14.6364 47.4091C13.7513 47.4091 12.9195 47.6477 12.1595 48.1132L13.2041 49.8187C13.6563 49.5417 14.1275 49.4091 14.6364 49.4091V47.4091ZM17.8149 48.6056C16.9584 47.7895 15.8692 47.4091 14.6364 47.4091V49.4091C15.4338 49.4091 16.0037 49.6423 16.4351 50.0535L17.8149 48.6056ZM19.0909 51.7273C19.0909 50.4963 18.6807 49.4204 17.8104 48.6013L16.4396 50.0577C16.8572 50.4508 17.0909 50.9734 17.0909 51.7273H19.0909ZM19.0909 59.6818V51.7273H17.0909V59.6818H19.0909ZM20.8182 58.6818H18.0909V60.6818H20.8182V58.6818ZM19.8182 52.3182V59.6818H21.8182V52.3182H19.8182ZM21.0927 48.8467C20.2266 49.7906 19.8182 50.9745 19.8182 52.3182H21.8182C21.8182 51.4042 22.084 50.7246 22.5664 50.1988L21.0927 48.8467ZM24.6818 47.4091C23.2408 47.4091 21.9945 47.8537 21.0893 48.8504L22.5698 50.195C23.0131 49.7069 23.6683 49.4091 24.6818 49.4091V47.4091ZM27.7879 48.452C26.8952 47.7513 25.8445 47.4091 24.6818 47.4091V49.4091C25.4282 49.4091 26.0366 49.6199 26.553 50.0252L27.7879 48.452ZM29.2273 52C29.2273 50.5457 28.8264 49.2672 27.7879 48.452L26.553 50.0252C26.9236 50.3162 27.2273 50.8786 27.2273 52H29.2273ZM29.2273 59.6818V52H27.2273V59.6818H29.2273ZM30.9091 58.6818H28.2273V60.6818H30.9091V58.6818Z" fill="black" mask="url(#path-7-outside-2_251_2)"/>
</svg>
